<svg xmlns="http://www.w3.org/2000/svg" width="64" height="64" viewBox="0 0 64 64"><defs><linearGradient id="g" x1="0" y1="0" x2="1" y2="1"><stop offset="0" stop-color="#E11D2A"/><stop offset="1" stop-color="#1E293B"/></linearGradient></defs><rect width="64" height="64" rx="14" fill="url(#g)"/><rect x="26" y="14" width="12" height="36" rx="6" fill="#fff"/><clipPath id="bp"><rect x="26" y="18" width="12" height="28" rx="2"/></clipPath><g clip-path="url(#bp)"><g stroke="#e11d2a" stroke-width="4.2"><path d="M20 22 L40 13"/><path d="M20 30 L40 21"/><path d="M20 38 L40 29"/><path d="M20 46 L40 37"/><path d="M20 54 L40 45"/></g><g stroke="#2563eb" stroke-width="4.2"><path d="M20 26 L40 17"/><path d="M20 34 L40 25"/><path d="M20 42 L40 33"/><path d="M20 50 L40 41"/></g></g><rect x="24" y="13" width="16" height="4.2" rx="2.1" fill="#fff"/><rect x="24" y="46" width="16" height="4.2" rx="2.1" fill="#fff"/></svg>